#!OML:ASF X:\für Bonn\!DataBase\2005_08_12_Daniel\c3d\Daniel.ASF
:FULLY-SPECIFIED
:DEGREES
247
root 2.49855 17.3297 12.8139 356.172 -206.315 719.543
lowerback 8.69225 -6.6403 -1.57086
upperback 1.32659 -8.96396 -1.88932
thorax -3.51481 -4.39917 -0.0502167
lowerneck 7.11509 8.06794 6.38292
upperneck 14.2451 13.798 -11.1239
head 4.30363 7.22262 -4.10955
rclavicle -1.57015e-013 -2.38542e-015
rhumerus -49.6747 -4.03736 -83.2776
rradius 60.539
rwrist -52.2949
rhand 6.75846 12.6395
rfingers 7.12502
rthumb 32.0458 -14.5572
lclavicle -1.57015e-013 -2.38542e-015
lhumerus -33.9439 45.2502 62.1905
lradius 17.0731
lwrist -44.194
lhand -11.7528 -7.26449
lfingers 7.12502
lthumb 14.2952 22.2234
rfemur -18.9894 -3.38296 14.9978
rtibia 51.0288
rfoot -15.9984 -2.04683
rtoes -15.9652
lfemur 1.69511 -13.0916 -31.1749
ltibia 31.6492
lfoot -27.1087 0.969775
ltoes 2.26832
248
root 2.53569 17.3385 12.7163 356.284 -205.134 719.551
lowerback 8.65865 -6.68482 -1.60193
upperback 1.37075 -9.02116 -1.89774
thorax -3.44669 -4.42711 -0.0435222
lowerneck 6.99552 7.86549 6.16135
upperneck 14.3466 13.5015 -10.9384
head 4.29945 7.07099 -4.02452
rclavicle 1.09058e-013 -3.4191e-014
rhumerus -49.2638 -4.45446 -83.0748
rradius 58.7716
rwrist -51.1303
rhand 6.41247 12.5416
rfingers 7.12502
rthumb 31.7163 -14.7209
lclavicle 1.09058e-013 -3.4191e-014
lhumerus -33.2975 44.5709 62.8703
lradius 17.3379
lwrist -43.2376
lhand -11.7536 -7.18631
lfingers 7.12502
lthumb 14.2945 22.3017
rfemur -19.6537 -2.72693 15.3109
rtibia 49.993
rfoot -16.5974 -3.41677
rtoes -16.0662
lfemur 2.35211 -13.6452 -31.2689
ltibia 31.0107
lfoot -26.9766 0.566968
ltoes 2.0745
249
root 2.57367 17.3469 12.6174 356.395 -203.961 719.56
lowerback 8.63149 -6.72722 -1.62835
upperback 1.40626 -9.07585 -1.90839
thorax -3.39218 -4.45375 -0.040446
lowerneck 6.91989 7.66173 5.9496
upperneck 14.431 13.2059 -10.7605
head 4.2854 6.92254 -3.94561
rclavicle -5.6753e-014 5.56597e-015
rhumerus -48.8404 -4.84407 -82.8583
rradius 56.944
rwrist -49.7489
rhand 5.88839 12.4717
rfingers 7.12502
rthumb 31.217 -14.8882
lclavicle -5.6753e-014 5.56597e-015
lhumerus -32.6495 43.6784 63.6246
lradius 17.6502
lwrist -42.0942
lhand -11.7685 -7.0587
lfingers 7.12502
lthumb 14.28 22.4303
rfemur -20.2907 -2.10633 15.5858
rtibia 48.8351
rfoot -17.0891 -4.74336
rtoes -16.3162
lfemur 3.05038 -14.1707 -31.339
ltibia 30.2898
lfoot -26.8022 0.118122
ltoes 2.0195
250
root 2.61377 17.3574 12.5163 356.51 -202.81 719.555
lowerback 8.57151 -6.76591 -1.66792
upperback 1.45293 -9.1253 -1.92487
thorax -3.30688 -4.47807 -0.0420312
lowerneck 6.84604 7.4616 5.72601
upperneck 14.509 12.9087 -10.5546
head 4.2679 6.77321 -3.8561
rclavicle 2.18415e-014 5.88403e-014
rhumerus -48.3806 -5.1959 -82.6457
rradius 55.0612
rwrist -48.0981
rhand 5.17899 12.4441
rfingers 7.12502
rthumb 30.5407 -15.0439
lclavicle 2.18415e-014 5.88403e-014
lhumerus -32.0548 42.872 64.3199
lradius 17.9747
lwrist -41.0345
lhand -11.7732 -6.89667
lfingers 7.12502
lthumb 14.2756 22.5926
rfemur -20.8774 -1.45366 15.7949
rtibia 47.5359
rfoot -17.4686 -5.90287
rtoes -16.5403
lfemur 3.78529 -14.6468 -31.3994
ltibia 29.4967
lfoot -26.6103 -0.344172
ltoes 1.83609
251
root 2.65451 17.3689 12.4135 356.624 -201.67 719.548
lowerback 8.51034 -6.80651 -1.70231
upperback 1.50884 -9.17601 -1.94415
thorax -3.21257 -4.50307 -0.0500605
lowerneck 6.68041 7.27197 5.52846
upperneck 14.6761 12.6385 -10.3503
head 4.2978 6.63427 -3.76325
rclavicle -3.72473e-014 -2.62396e-014
rhumerus -47.8923 -5.50848 -82.4412
rradius 53.1463
rwrist -46.2313
rhand 4.29373 12.4879
rfingers 7.12502
rthumb 29.6961 -15.154
lclavicle -3.72473e-014 -2.62396e-014
lhumerus -31.4577 42.0148 64.9947
lradius 18.2713
lwrist -39.9432
lhand -11.8019 -6.7889
lfingers 7.12502
lthumb 14.2479 22.7024
rfemur -21.3943 -0.77734 15.9283
rtibia 46.0981
rfoot -17.7532 -6.78371
rtoes -16.6084
lfemur 4.54136 -15.0683 -31.43
ltibia 28.6422
lfoot -26.3816 -0.879903
ltoes 1.81562
252
root 2.69682 17.3806 12.3099 356.742 -200.556 719.556
lowerback 8.44378 -6.8378 -1.71101
upperback 1.56948 -9.21186 -1.97609
thorax -3.11657 -4.52091 -0.087218
lowerneck 6.60436 7.0801 5.34789
upperneck 14.7357 12.3493 -10.1424
head 4.28072 6.49017 -3.67903
rclavicle -2.1419e-014 2.62396e-014
rhumerus -47.4074 -5.83418 -82.2464
rradius 51.2069
rwrist -44.1272
rhand 3.3289 12.5697
rfingers 7.12502
rthumb 28.7748 -15.2325
lclavicle -2.1419e-014 2.62396e-014
lhumerus -30.8396 40.9578 65.7124
lradius 18.5917
lwrist -38.7059
lhand -11.851 -6.60015
lfingers 7.12502
lthumb 14.2005 22.8944
rfemur -21.8579 -0.0596942 16.0162
rtibia 44.5271
rfoot -17.8732 -7.49875
rtoes -17.0269
lfemur 5.32984 -15.4597 -31.4297
ltibia 27.7342
lfoot -26.1443 -1.40054
ltoes 1.72611
253
root 2.73919 17.3922 12.2052 356.843 -199.467 719.535
lowerback 8.39801 -6.86899 -1.75689
upperback 1.62904 -9.25063 -1.99911
thorax -3.02588 -4.53951 -0.0928037
lowerneck 6.54006 6.8986 5.14836
upperneck 14.7821 12.075 -9.94728
head 4.25982 6.35282 -3.59558
rclavicle 1.28713e-014 2.62396e-014
rhumerus -46.884 -6.07906 -82.0437
rradius 49.2151
rwrist -41.8459
rhand 2.28653 12.649
rfingers 7.12502
rthumb 27.7786 -15.3182
lclavicle 1.28713e-014 2.62396e-014
lhumerus -30.2901 39.8611 66.4095
lradius 18.9372
lwrist -37.4497
lhand -11.9167 -6.38682
lfingers 7.12502
lthumb 14.1373 23.1122
rfemur -22.2554 0.697734 16.0067
rtibia 42.8449
rfoot -17.8321 -8.06081
rtoes -17.5818
lfemur 6.14851 -15.8422 -31.4472
ltibia 26.7887
lfoot -25.9014 -1.9396
ltoes 1.71306
254
root 2.78233 17.402 12.1002 356.952 -198.421 719.516
lowerback 8.33738 -6.889 -1.78929
upperback 1.70175 -9.27203 -2.03097
thorax -2.91702 -4.54969 -0.11927
lowerneck 6.4393 6.73029 4.95377
upperneck 14.8346 11.8129 -9.72888
head 4.24794 6.22011 -3.50304
rclavicle -1.6842e-013 -5.24792e-014
rhumerus -46.3403 -6.34525 -81.8599
rradius 47.222
rwrist -39.4147
rhand 1.17589 12.7462
rfingers 7.12502
rthumb 26.7162 -15.3878
lclavicle -1.6842e-013 -5.24792e-014
lhumerus -29.7179 38.7687 67.0704
lradius 19.2276
lwrist -36.2296
lhand -11.9815 -6.19973
lfingers 7.12502
lthumb 14.0748 23.3036
rfemur -22.6195 1.5106 15.9365
rtibia 41.0622
rfoot -17.5334 -8.58818
rtoes -17.6197
lfemur 6.95795 -16.1528 -31.4355
ltibia 25.8242
lfoot -25.6352 -2.49359
ltoes 1.71744
255
root 2.82583 17.4103 11.9939 357.051 -197.418 719.485
lowerback 8.30942 -6.90852 -1.83824
upperback 1.75876 -9.29565 -2.05756
thorax -2.83896 -4.56036 -0.126064
lowerneck 6.37989 6.57537 4.78533
upperneck 14.8576 11.5735 -9.54466
head 4.22646 6.10062 -3.42642
rclavicle 2.5196e-014 -1.82882e-014
rhumerus -45.8194 -6.53239 -81.6905
rradius 45.2157
rwrist -36.788
rhand 0.0511468 12.9122
rfingers 7.12502
rthumb 25.6394 -15.3815
lclavicle 2.5196e-014 -1.82882e-014
lhumerus -29.2746 37.7535 67.6363
lradius 19.5645
lwrist -35.1322
lhand -12.0181 -6.05344
lfingers 7.12502
lthumb 14.0396 23.4524
rfemur -22.9386 2.41245 15.7838
rtibia 39.2054
rfoot -17.0456 -9.07505
rtoes -16.8725
lfemur 7.78488 -16.452 -31.4379
ltibia 24.8504
lfoot -25.3925 -2.99702
ltoes 1.74148
256
root 2.86881 17.4163 11.8881 357.148 -196.449 719.452
lowerback 8.293 -6.92384 -1.88165
upperback 1.81641 -9.31317 -2.08145
thorax -2.76706 -4.56787 -0.132276
lowerneck 6.33567 6.42827 4.61588
upperneck 14.8768 11.3483 -9.37387
head 4.20397 5.98853 -3.35372
rclavicle -1.61413e-013 -1.43125e-014
rhumerus -45.2573 -6.72845 -81.5054
rradius 43.174
rwrist -33.9543
rhand -1.02395 13.0582
rfingers 7.12502
rthumb 24.6093 -15.3799
lclavicle -1.61413e-013 -1.43125e-014
lhumerus -28.8661 36.8481 68.129
lradius 19.859
lwrist -34.194
lhand -12.0925 -5.91271
lfingers 7.12502
lthumb 13.9678 23.5981
rfemur -23.2175 3.52288 15.5599
rtibia 37.2934
rfoot -16.5671 -9.65589
rtoes -15.9114
lfemur 8.60911 -16.7123 -31.4288
ltibia 23.8818
lfoot -25.1393 -3.51236
ltoes 1.76236
257
root 2.91163 17.4197 11.7814 357.244 -195.545 719.41
lowerback 8.28319 -6.91576 -1.92553
upperback 1.87574 -9.29942 -2.11401
thorax -2.69859 -4.55956 -0.149411
lowerneck 6.3052 6.28618 4.49114
upperneck 14.8698 11.1278 -9.21263
head 4.17519 5.88055 -3.29168
rclavicle -5.64548e-014 4.45278e-014
rhumerus -44.6978 -6.98497 -81.3119
rradius 41.1749
rwrist -31.0474
rhand -2.0361 13.1292
rfingers 7.12502
rthumb 23.6388 -15.4376
lclavicle -5.64548e-014 4.45278e-014
lhumerus -28.4489 35.8105 68.5964
lradius 20.1013
lwrist -33.2011
lhand -12.1586 -5.80316
lfingers 7.12502
lthumb 13.9041 23.712
rfemur -23.4857 4.89814 15.2383
rtibia 35.3701
rfoot -16.3157 -10.3944
rtoes -15.2435
lfemur 9.4357 -16.9177 -31.4211
ltibia 22.9055
lfoot -24.8976 -4.01418
ltoes 1.80793
258
root 2.9525 17.4213 11.6748 357.331 -194.697 719.366
lowerback 8.31756 -6.90195 -1.9745
upperback 1.91879 -9.28046 -2.13734
thorax -2.66903 -4.54805 -0.148047
lowerneck 6.30116 6.14181 4.43016
upperneck 14.8493 10.9184 -9.13123
head 4.14642 5.77997 -3.26499
rclavicle -5.96354e-014 -1.51076e-014
rhumerus -44.122 -7.24628 -81.09
rradius 39.1352
rwrist -27.9012
rhand -2.99324 13.1462
rfingers 7.12502
rthumb 22.7205 -15.5361
lclavicle -5.96354e-014 -1.51076e-014
lhumerus -28.0943 34.7016 69.0306
lradius 20.332
lwrist -32.1311
lhand -12.1723 -5.6904
lfingers 7.12502
lthumb 13.891 23.8257
rfemur -23.7767 6.32 14.8328
rtibia 33.4757
rfoot -16.3034 -11.1469
rtoes -15.4031
lfemur 10.2939 -17.0987 -31.4255
ltibia 21.8825
lfoot -24.6209 -4.45182
ltoes 1.91549
259
root 2.99267 17.4225 11.5685 357.399 -193.911 719.299
lowerback 8.39267 -6.89167 -2.07358
upperback 1.96272 -9.27061 -2.15444
thorax -2.65192 -4.54009 -0.10792
lowerneck 6.25655 6.03347 4.38396
upperneck 14.8445 10.7577 -9.04881
head 4.13374 5.70162 -3.23633
rclavicle 1.5863e-013 -4.77083e-015
rhumerus -43.4879 -7.67661 -80.776
rradius 37.0047
rwrist -24.3298
rhand -3.7796 13.2365
rfingers 7.12502
rthumb 21.9656 -15.5364
lclavicle 1.5863e-013 -4.77083e-015
lhumerus -27.8408 33.7092 69.3777
lradius 20.577
lwrist -31.1511
lhand -12.2134 -5.60731
lfingers 7.12502
lthumb 13.8514 23.9115
rfemur -24.1167 7.7113 14.344
rtibia 31.6752
rfoot -16.4288 -11.8487
rtoes -16.1865
lfemur 11.1926 -17.2134 -31.4426
ltibia 20.7998
lfoot -24.3349 -4.89671
ltoes 2.13129
260
root 3.03211 17.4248 11.461 357.459 -193.187 719.232
lowerback 8.51459 -6.86602 -2.18401
upperback 1.98394 -9.24409 -2.15308
thorax -2.67943 -4.52329 -0.0370603
lowerneck 6.21543 5.9247 4.38432
upperneck 14.868 10.6146 -9.02922
head 4.13573 5.6333 -3.23336
rclavicle -5.10877e-014 4.45278e-014
rhumerus -42.8332 -8.29166 -80.3148
rradius 34.7705
rwrist -20.3458
rhand -4.49181 13.3175
rfingers 7.12502
rthumb 21.2816 -15.534
lclavicle -5.10877e-014 4.45278e-014
lhumerus -27.7284 33.1659 69.5471
lradius 20.75
lwrist -30.6267
lhand -12.2538 -5.64753
lfingers 7.12502
lthumb 13.8124 23.8739
rfemur -24.5657 9.2948 13.7655
rtibia 30.0164
rfoot -16.671 -12.7233
rtoes -17.3591
lfemur 12.1468 -17.2553 -31.4439
ltibia 19.6245
lfoot -24.0052 -5.35376
ltoes 2.40303
261
root 3.07174 17.4271 11.3527 357.504 -192.496 719.168
lowerback 8.64653 -6.83553 -2.28304
upperback 2.02601 -9.20885 -2.17024
thorax -2.69581 -4.5017 0.00780513
lowerneck 6.15144 5.81484 4.46466
upperneck 14.8736 10.4705 -9.04709
head 4.14139 5.56502 -3.25403
rclavicle 7.15625e-015 -4.6118e-014
rhumerus -42.1232 -9.08614 -79.7783
rradius 32.4228
rwrist -15.9921
rhand -5.13218 13.5267
rfingers 7.12502
rthumb 20.6664 -15.3931
lclavicle 7.15625e-015 -4.6118e-014
lhumerus -27.6552 32.9967 69.5611
lradius 20.8367
lwrist -30.5044
lhand -12.2836 -5.75596
lfingers 7.12502
lthumb 13.7837 23.7674
rfemur -25.015 10.9586 13.1208
rtibia 28.5229
rfoot -17.2131 -13.6547
rtoes -17.1136
lfemur 13.162 -17.3035 -31.4497
ltibia 18.3717
lfoot -23.6265 -5.79127
ltoes 2.74766
